<?xml version="1.0" standalone="no"?>
<!DOCTYPE svg PUBLIC "-//W3C//DTD SVG 20010904//EN"
 "https://www.w3.org/TR/2001/REC-SVG-20010904/DTD/svg10.dtd">
<svg version="1.0" xmlns="https://www.w3.org/2000/svg"
 width="300.000000pt" height="69.000000pt" viewBox="0 0 300.000000 69.000000"
 preserveAspectRatio="xMidYMid meet">
<metadata>
Created by potrace 1.10, written by Peter Selinger 2001-2011
</metadata>
<g transform="translate(0.000000,69.000000) scale(0.050000,-0.050000)"
fill="#ec7405" stroke="none">
<path d="M204 1196 c-15 -15 -24 -91 -24 -205 l0 -181 53 57 c112 122 272 160
382 93 70 -42 77 -39 44 21 -29 55 4 105 91 136 88 32 84 35 291 -217 81 -98
150 -176 153 -172 4 3 -13 116 -38 249 l-44 243 -442 0 c-317 0 -449 -7 -466
-24z"/>
<path d="M1471 1030 c49 -104 89 -198 89 -208 0 -11 10 -26 21 -33 16 -10 17
370 0 426 0 3 -45 5 -100 5 l-98 0 88 -190z"/>
<path d="M1240 1168 c0 -7 27 -143 60 -301 33 -159 60 -293 60 -298 0 -41
-151 -68 -179 -31 -140 180 -352 438 -356 434 -3 -3 49 -120 115 -260 138
-293 137 -287 66 -314 -46 -17 -59 -14 -90 26 -34 45 -35 45 -36 4 0 -23 -18
-58 -40 -78 -70 -63 -45 -71 176 -58 370 23 426 9 513 -133 81 -132 101 -143
119 -68 l13 51 61 -43 c108 -77 182 23 83 113 l-55 49 45 32 c66 46 58 57 -74
97 -131 39 -159 84 -131 212 14 60 12 62 -43 50 -56 -12 -58 -10 -176 258
-110 250 -131 291 -131 258z m182 -691 c37 -13 88 -39 112 -57 24 -19 86 -46
138 -61 l94 -26 -44 -36 -44 -35 66 -60 c81 -72 59 -107 -27 -43 -62 46 -64
46 -91 9 -26 -36 -64 -16 -66 35 0 7 -54 68 -120 137 -154 160 -157 184 -18
137z"/>
<path d="M386 828 c-146 -73 -97 -181 71 -156 62 9 164 17 225 17 l113 1 -41
83 c-37 77 -44 82 -88 62 -35 -17 -65 -16 -113 1 -83 30 -89 30 -167 -8z"/>
<path d="M1929 771 c-91 -92 -54 -218 75 -251 160 -41 199 -62 192 -108 -9
-61 -140 -71 -190 -13 -42 49 -126 55 -126 9 0 -181 384 -196 429 -16 23 95
-27 154 -169 199 -102 32 -131 51 -136 85 -10 66 83 81 157 27 52 -39 139 -59
139 -32 0 139 -261 210 -371 100z"/>
<path d="M2348 791 c-17 -43 8 -71 63 -71 52 0 64 37 25 76 -33 33 -75 30 -88
-5z"/>
<path d="M2484 555 l6 -265 75 -6 c64 -6 75 -1 75 35 0 23 -13 41 -30 41 -24
0 -30 28 -30 130 0 102 6 130 30 130 17 0 30 14 30 30 0 17 -13 30 -30 30 -20
0 -30 20 -30 58 0 53 -29 82 -82 82 -11 0 -17 -108 -14 -265z"/>
<path d="M3068 797 c-43 -70 -20 -517 27 -517 44 0 45 6 45 203 0 241 16 239
71 -9 41 -181 42 -184 103 -190 l63 -6 46 196 47 196 6 -195 c5 -192 6 -195
55 -195 l49 0 0 270 0 270 -79 0 c-58 0 -81 -9 -88 -35 -5 -19 -25 -102 -44
-185 -48 -209 -56 -208 -111 14 -47 193 -49 196 -111 202 -36 4 -70 -5 -79
-19z"/>
<path d="M3980 551 l0 -271 50 0 c46 0 50 7 50 90 0 50 9 90 20 90 11 0 40
-40 64 -90 39 -80 52 -90 110 -90 81 0 81 -5 -6 132 l-72 112 72 74 c87 89 89
102 14 102 -45 0 -74 -20 -125 -84 l-67 -85 -10 140 c-9 125 -14 140 -55 145
-45 7 -45 5 -45 -265z"/>
<path d="M5012 795 c8 -14 49 -75 90 -137 l76 -112 -90 -133 -89 -133 69 0
c60 0 75 11 123 93 l54 92 51 -92 c45 -82 59 -93 117 -93 l67 0 -71 110 c-100
157 -100 155 -11 290 98 148 98 144 17 136 -52 -5 -73 -22 -111 -91 -58 -106
-64 -106 -124 5 -43 79 -57 90 -116 90 -48 0 -62 -7 -52 -25z"/>
<path d="M5524 796 c-16 -16 -24 -105 -24 -270 l0 -246 190 0 c189 0 190 0
190 50 0 48 -5 50 -130 50 l-130 0 0 220 c0 229 -21 271 -96 196z"/>
<path d="M2733 677 c-129 -75 -109 -341 29 -398 99 -41 258 27 258 110 0 18
-63 13 -132 -13 -52 -18 -72 -18 -97 3 -67 56 -37 81 99 81 l130 0 -1 65 c-1
136 -164 223 -286 152z m167 -85 c0 -5 5 -23 12 -40 10 -26 -3 -32 -70 -32
-77 0 -107 29 -69 67 15 14 127 18 127 5z"/>
<path d="M3700 686 c-33 -12 -80 -64 -80 -90 0 -23 75 -20 122 5 46 25 124 6
113 -27 -4 -12 -51 -33 -104 -47 -153 -39 -194 -126 -101 -218 124 -125 293
-27 306 177 11 174 -96 257 -256 200z m160 -246 c0 -63 -94 -115 -134 -74 -26
26 -28 38 -8 62 22 26 44 34 127 49 8 2 15 -15 15 -37z"/>
<path d="M4416 639 c-76 -76 -75 -248 1 -325 83 -83 303 -40 303 59 0 31 -91
37 -110 7 -21 -34 -107 -22 -129 17 -28 54 -10 63 135 63 l129 0 -12 75 c-26
162 -201 220 -317 104z m204 -79 c20 -37 15 -40 -70 -40 -85 0 -90 3 -70 40
12 23 42 40 70 40 28 0 58 -17 70 -40z"/>
<path d="M4907 685 c-90 -15 -136 -96 -144 -256 l-7 -149 62 0 61 0 -12 116
c-13 126 17 184 94 184 28 0 39 14 39 48 0 52 -26 68 -93 57z"/>
<path d="M2350 480 l0 -200 53 0 53 0 -6 185 c-3 102 -7 192 -8 200 -1 8 -22
15 -47 15 -44 0 -45 -6 -45 -200z"/>
<path d="M180 469 c0 -125 6 -151 39 -168 55 -30 101 -26 101 8 0 57 117 100
161 60 80 -73 267 8 255 110 -7 57 -86 65 -320 32 -110 -16 -116 -14 -175 45
l-61 61 0 -148z"/>
</g>
</svg>
